# xmcd CD database file
#
# Track frame offsets:
#	150
#	1245
#	23469
#	43590
#	59062
#	76675
#	95357
#	111802
#	134112
#	151597
#	168405
#
# Disc length: 2531 seconds
#
# Revision: 8
# Processed by: cddbd v1.5.1PL2 Copyright (c) Steve Scherf et al.
# Submitted via: CDex 1.51
#
DISCID=7b09e10b
DTITLE=张国荣 - 红
DYEAR=1996
DGENRE=Blues
TTITLE0=Prologue [红]
TTITLE1=偷情
TTITLE2=有心人
TTITLE3=还有谁
TTITLE4=谈情说爱
TTITLE5=你我之间
TTITLE6=怨男
TTITLE7=怪你过份美丽
TTITLE8=不想拥抱我的人
TTITLE9=意犹未尽
TTITLE10=红
EXTD=YEAR: 1996
EXTT0=
EXTT1=
EXTT2=
EXTT3=
EXTT4=
EXTT5=
EXTT6=
EXTT7=
EXTT8=
EXTT9=
EXTT10=
PLAYORDER=
